<svg xmlns="http://www.w3.org/2000/svg" viewBox="0 0 865.76 682.89"><rect x="71.12" y="482.87" width="723.52" height="0.36" fill="#ebebeb"/><rect x="147.03" y="506.15" width="47.93" height="0.36" fill="#ebebeb"/><rect x="266.95" y="510.09" width="64.39" height="0.36" fill="#ebebeb"/><rect x="196.4" y="492.72" width="101.9" height="0.36" fill="#ebebeb"/><rect x="703.78" y="495.16" width="18.36" height="0.36" fill="#ebebeb"/><rect x="637.59" y="495.16" width="53.29" height="0.36" fill="#ebebeb"/><rect x="472.25" y="501.26" width="45.03" height="0.36" fill="#ebebeb"/><path d="M414.07,418.33H134.66a8.26,8.26,0,0,1-8.25-8.26V17.3a8.27,8.27,0,0,1,8.25-8.19H414.07a8.26,8.26,0,0,1,8.26,8.26h0v392.7A8.26,8.26,0,0,1,414.07,418.33ZM134.66,9.4a7.9,7.9,0,0,0-7.89,7.9V410.07a7.9,7.9,0,0,0,7.89,7.9H414.07a7.92,7.92,0,0,0,7.9-7.9V17.3a7.92,7.92,0,0,0-7.9-7.9Z" fill="#ebebeb"/><path d="M727.08,418.33H447.65a8.28,8.28,0,0,1-8.26-8.26V17.3a8.28,8.28,0,0,1,8.26-8.19H727.08a8.26,8.26,0,0,1,8.23,8.19V410.07A8.26,8.26,0,0,1,727.08,418.33ZM447.65,9.4a7.92,7.92,0,0,0-7.9,7.9V410.07a7.92,7.92,0,0,0,7.9,7.9H727.08a7.92,7.92,0,0,0,7.9-7.9V17.3a7.92,7.92,0,0,0-7.9-7.9Z" fill="#ebebeb"/><path d="M653.25,296.51c-45.21,4.61-32.37,23.28-32.37,23.28h65.23C692.29,317.78,698.44,291.88,653.25,296.51Z" fill="#f0f0f0"/><path d="M642.7,298c4.76.21,20.35,4.48,29.84,12.11-6.82-12.36-18.26-13.71-18.26-13.71S645.78,296.84,642.7,298Z" fill="#fafafa"/><path d="M629.91,301.73a49.69,49.69,0,0,1,24.22,9.52c-5.92-10.71-15.19-12.43-15.19-12.43A18.25,18.25,0,0,0,629.91,301.73Z" fill="#fafafa"/><path d="M663.28,296a61.37,61.37,0,0,1,20.14,10.85c-3.67-7.53-12.14-10.39-12.14-10.39A21.14,21.14,0,0,0,663.28,296Z" fill="#fafafa"/><path d="M689.58,219.9c-23.57,3.2-16.88,16.18-16.88,16.18h34C710,234.67,713.17,216.69,689.58,219.9Z" fill="#f0f0f0"/><path d="M684.1,220.94c2.49.15,10.61,3.11,15.57,8.41-3.56-8.58-9.52-9.52-9.52-9.52A23.92,23.92,0,0,0,684.1,220.94Z" fill="#fafafa"/><path d="M657.17,390c-63.38,2.73-45.39,13.5-45.39,13.5H703.3C711.88,402.34,700.48,388.13,657.17,390Z" fill="#f0f0f0"/><path d="M642.37,390.88c6.68.12,28.53,2.59,41.85,7-9.57-7.15-25.6-7.95-25.6-7.95S646.65,390.2,642.37,390.88Z" fill="#fafafa"/><path d="M624.38,393c5.79.1,22.43,1.68,34,5.51-8.29-6.21-21.32-7.23-21.32-7.23A54.15,54.15,0,0,0,624.38,393Z" fill="#fafafa"/><rect x="559.05" y="139.72" width="7.44" height="343.15" fill="#e6e6e6"/><rect x="512.45" y="139.72" width="7.44" height="343.15" fill="#f5f5f5"/><rect x="668.72" y="139.72" width="7.44" height="343.15" fill="#f5f5f5"/><rect x="715.31" y="139.72" width="7.44" height="343.15" fill="#f5f5f5"/><rect x="516.17" y="451.6" width="201.28" height="16.74" fill="#f5f5f5"/><rect x="516.17" y="403.5" width="201.28" height="5.47" fill="#f5f5f5"/><rect x="516.17" y="319.79" width="201.28" height="5.47" fill="#f5f5f5"/><rect x="516.17" y="236.08" width="201.28" height="5.47" fill="#f5f5f5"/><rect x="516.17" y="139.72" width="201.28" height="5.47" fill="#f5f5f5"/><path d="M567.45,296.51c-45.2,4.61-32.37,23.28-32.37,23.28h65.27C606.42,317.78,612.57,291.88,567.45,296.51Z" fill="#f0f0f0"/><path d="M556.86,298c4.76.21,20.35,4.48,29.84,12.11-6.82-12.36-18.25-13.71-18.25-13.71S559.92,296.84,556.86,298Z" fill="#fafafa"/><path d="M544,301.73a49.67,49.67,0,0,1,24.23,9.52c-5.92-10.71-15.2-12.43-15.2-12.43A18.28,18.28,0,0,0,544,301.73Z" fill="#fafafa"/><path d="M577.42,296a61.6,61.6,0,0,1,20.13,10.85c-3.67-7.53-12.14-10.39-12.14-10.39A21.09,21.09,0,0,0,577.42,296Z" fill="#fafafa"/><path d="M581.09,390c-63.38,2.73-45.4,13.5-45.4,13.5h91.54C635.86,402.34,624.45,388.13,581.09,390Z" fill="#f0f0f0"/><path d="M566.34,390.88c6.69.12,28.54,2.59,41.85,7-9.57-7.15-25.6-7.95-25.6-7.95S570.62,390.2,566.34,390.88Z" fill="#fafafa"/><path d="M548.35,393c5.79.1,22.43,1.68,34,5.51C574,392.34,561,391.32,561,391.32A54.16,54.16,0,0,0,548.35,393Z" fill="#fafafa"/><path d="M551.09,219.9c-23.57,3.2-16.92,16.18-16.92,16.18h34C571.46,234.67,574.69,216.69,551.09,219.9Z" fill="#f0f0f0"/><path d="M545.6,220.94c2.49.15,10.63,3.11,15.57,8.41-3.56-8.58-9.52-9.52-9.52-9.52A24,24,0,0,0,545.6,220.94Z" fill="#fafafa"/><path d="M596.86,219.9C573.29,223.1,580,236.08,580,236.08h34C617.23,234.67,620.45,216.69,596.86,219.9Z" fill="#f0f0f0"/><path d="M591.37,220.94c2.49.15,10.61,3.11,15.57,8.41-3.56-8.58-9.52-9.52-9.52-9.52A24,24,0,0,0,591.37,220.94Z" fill="#fafafa"/><path d="M644.71,219.9c-23.57,3.2-16.87,16.18-16.87,16.18h34C665.09,234.67,668.3,216.69,644.71,219.9Z" fill="#f0f0f0"/><path d="M639.23,220.94c2.49.15,10.62,3.11,15.57,8.41-3.56-8.58-9.52-9.52-9.52-9.52A23.92,23.92,0,0,0,639.23,220.94Z" fill="#fafafa"/><rect x="143.63" y="91.69" width="335.24" height="191.31" fill="#f5f5f5"/><rect x="158.3" y="127.69" width="305.9" height="119.32" fill="#f0f0f0"/><polygon points="232.64 247 195.41 247 267.28 127.69 304.51 127.69 232.64 247" fill="#fafafa"/><polygon points="293.94 247 256.7 247 328.58 127.69 365.81 127.69 293.94 247" fill="#fafafa"/><path d="M466.74,238.46h-311a5.17,5.17,0,0,1-5.18-5.18h0a5.18,5.18,0,0,1,5.18-5.18h311a5.2,5.2,0,0,1,5.2,5.18h0A5.19,5.19,0,0,1,466.74,238.46Z" fill="#e0e0e0"/><rect x="143.63" y="291.54" width="335.24" height="191.31" fill="#f5f5f5"/><rect x="155.45" y="283" width="311.59" height="8.54" fill="#e0e0e0"/><rect x="158.3" y="327.54" width="305.9" height="119.32" fill="#f0f0f0"/><polygon points="232.64 446.87 195.41 446.87 267.28 327.55 304.51 327.55 232.64 446.87" fill="#fafafa"/><polygon points="293.94 446.87 256.7 446.87 328.58 327.55 365.81 327.55 293.94 446.87" fill="#fafafa"/><path d="M466.74,438.32h-311a5.18,5.18,0,0,1-5.18-5.18v-.05h0a5.18,5.18,0,0,1,5.18-5.18h311a5.19,5.19,0,0,1,5.21,5.15v0h0a5.2,5.2,0,0,1-5.14,5.23Z" fill="#e0e0e0"/><ellipse cx="447.96" cy="657.4" rx="235.46" ry="16.38" fill="#f5f5f5"/><path d="M607.48,596.3s8.21,3.89,5.19,16.85L603.16,636s-2.91,13.89-28.79,9a4.69,4.69,0,0,1-3.82-4.15,5.75,5.75,0,0,1,2.16-5.14,18.49,18.49,0,0,0,5-6.42L583.39,617Z" fill="#fff" stroke="#ffead2" stroke-miterlimit="10"/><path d="M518.93,628s-23.11,7.6-16.63,13c0,0,9.29,7.77,37.58,0l22.9-4.77s6.45-.83,2.37-17C565.15,619.19,541,629.91,518.93,628Z" fill="#fff" stroke="#ffead2" stroke-miterlimit="10"/><path d="M570.93,575.79S585,591.33,584.59,608.4c0,0-3,11.55.37,17a5.24,5.24,0,0,0,3.07,2.28c2.81.81,8.47.89,12.54-9.13a97.08,97.08,0,0,0,6.91-22.25s-5.18-5-8-20.51l-4.19-21.15Z" fill="#fff" stroke="#ffead2" stroke-miterlimit="10"/><path d="M541.38,585.9v17.74s.45,15-22.45,24.37c0,0,16.92,2.86,46.22-8.82V587.71Z" fill="#fff" stroke="#ffead2" stroke-miterlimit="10"/><path d="M524.58,464.44l2.95,120.4,38.67,2.95v-7.9l29.1-25.25L574,466.36A415.13,415.13,0,0,1,524.58,464.44Z" fill="#fff" stroke="#ffead2" stroke-miterlimit="10"/><path d="M526.81,464.66s19.87,76.72,35,113.18" fill="none" stroke="#ffead2" stroke-linecap="round" stroke-linejoin="round"/><path d="M367.39,319.78H302s-9.09-14.17,4.72-23.88a28.86,28.86,0,0,1,7.5-4,48.37,48.37,0,0,1,7.86-2.28,64.47,64.47,0,0,1,14.33-1.24c1.57,0,3.19.11,4.88.25.78.06,1.55.14,2.32.23a57.45,57.45,0,0,1,11.81,2.66,52.39,52.39,0,0,1,6.64,2.8l1,.52C372.2,299.78,381.19,308.31,367.39,319.78Z" fill="#fff" stroke="#ffead2" stroke-miterlimit="10"/><path d="M322,289.63c-4.55,7.39-5.72,17.3-5.72,17.3-3.47-5.14-3-11.25-2.14-15A48.37,48.37,0,0,1,322,289.63Z" fill="#ffead2"/><path d="M343.57,288.87c-9.66,7.64-10.71,19.87-10.71,19.87-2.77-9.31,1.15-16.88,3.51-20.35,1.57,0,3.19.11,4.88.25C342,288.7,342.8,288.78,343.57,288.87Z" fill="#ffead2"/><path d="M362,294.33c-13.45,1.92-13.53,14.09-13.53,14.4-2.4-10.74,3.23-15.37,6.89-17.2A52.39,52.39,0,0,1,362,294.33Z" fill="#ffead2"/><path d="M452,267.4h-8s-7.24.56-9.74,5.71l-8.71,4.29s-12.59-1.2-12.41,4.14c0,0-5.69,1.9-4.14,5.69l.62,12.32a5.54,5.54,0,0,0,1.05,3c1.74,2.36,6.23,6.3,16.78,6,0,0,4.22-.42,5.28-3.26a1.66,1.66,0,0,1,1.26-1c.6-.13,1.22-.86,1.05-3.42v-.1l0-7.42a2.84,2.84,0,0,1,.64-1.77,7.33,7.33,0,0,0,1-1.71,4.31,4.31,0,0,1,3.78-2.58l17.58-.68,1.93-7.95Zm-23.71,29.69c-5.6-4.33-5.68-9.58-5.38-11.91a.92.92,0,0,1,1.36-.68c4.71,2.72,5.43,8.85,5.48,11.86A.9.9,0,0,1,428.27,297.09Z" fill="#fff" stroke="#ffead2" stroke-miterlimit="10"/><path d="M414.86,286.2l1.75,7a6.58,6.58,0,0,0,2,3.32l11.11,9.86" fill="none" stroke="#ffead2" stroke-linecap="round" stroke-linejoin="round"/><path d="M410.38,292.23l.55,5a6.1,6.1,0,0,0,3.13,4.7,60,60,0,0,0,14.25,5.23" fill="none" stroke="#ffead2" stroke-linecap="round" stroke-linejoin="round"/><polyline points="508.72 153.95 523.11 207.62 483.93 242.58" fill="#ACB1D6" stroke="#ffead2" stroke-miterlimit="10"/><path d="M513,156.77c-1.89-1.58-8.69-7.42-10.53-8.22L471.37,164.1S443.15,180.23,444,197.7l-1.53,47.83a27.71,27.71,0,0,0,1.17,8.67,9.66,9.66,0,0,1-.09,6.1,8.26,8.26,0,0,1-3.5,4,12.93,12.93,0,0,0-6,8.64.13.13,0,0,0,.2.13c1.63-1.21,10.62-7.32,17,.2,0,0,5.6,8.94,6.81,13.3a1.86,1.86,0,0,0,1.83,1.38c1.7,0,4.4-.75,6.4-4.45a8.44,8.44,0,0,0,.86-2.91c.09-.75.63-2,2.74-3.7a11.2,11.2,0,0,1,2.44-1.36,7.79,7.79,0,0,0,4.88-5.59,28.23,28.23,0,0,1,2.59-6.79,37,37,0,0,0,4.13-20.61" fill="#ACB1D6" stroke="#ffead2" stroke-miterlimit="10"/><path d="M474.16,164.69s-11.09,36.19-2.41,57.78c0,0,4,12.44,16.43,24.65,0,0,11.73,11,11.5,24.17l1.46,55.13-7.51,134.52s70.2,10.63,114.87,2.12l6.73-104.22s11.7-44.89-30.18-97.45a113,113,0,0,0-32.27-27.47c-9.4-5.39-21.9-15.66-26.53-33.55l-11.78-43.6H513l-7-6.07s6.12,17.49,13,53.86A5.24,5.24,0,0,1,516.6,210c-7.05,4.47-25.13,14.12-39.15,6a6.61,6.61,0,0,1-3.29-5.74Z" fill="#ffead2"/><rect x="197.36" y="407.93" width="501.2" height="8.57" fill="#ACB1D6" stroke="#ffead2" stroke-miterlimit="10"/><path d="M474.16,164.69a32.14,32.14,0,0,0,14.55,18.62L490,194.69l7.58-1.58-3.79-11.54s15.75-13.13,12.22-25.3l-5.28-11.4S498,166.31,474.16,164.69Z" fill="#fff" stroke="#ffead2" stroke-miterlimit="10"/><path d="M474.16,164.69s.13,2.83,4.73,9.62c0,0,14.2-5.34,16.44-17.54C495.33,156.77,489,166.16,474.16,164.69Z" fill="#ffead2"/><path d="M475.89,178s1.08,6.71,10.55,15.4" fill="none" stroke="#ffead2" stroke-linecap="round" stroke-linejoin="round"/><path d="M499.07,190.6s8.29-8.11,12.44-16.29" fill="none" stroke="#ffead2" stroke-linecap="round" stroke-linejoin="round"/><path d="M441.24,263.73a30,30,0,0,1,25.34,14.93" fill="none" stroke="#ffead2" stroke-linecap="round" stroke-linejoin="round"/><path d="M453.91,257.57S471.4,262,477.21,270" fill="none" stroke="#ffead2" stroke-linecap="round" stroke-linejoin="round"/><path d="M452,200.68s13.39,31,31.65,42.39" fill="none" stroke="#ffead2" stroke-linecap="round" stroke-linejoin="round"/><rect x="192.65" y="319.79" width="192.68" height="6.63" fill="#ACB1D6" stroke="#ffead2" stroke-miterlimit="10"/><path d="M312.52,319.78h-71s-9.87-17,5.13-28.64a30.58,30.58,0,0,1,8.14-4.78,49,49,0,0,1,8.53-2.74,64,64,0,0,1,15.57-1.48c1.69,0,3.46.13,5.3.3q1.26.1,2.52.27a57.73,57.73,0,0,1,12.82,3.2,54,54,0,0,1,7.2,3.35c.37.2.73.41,1.08.62C317.74,295.79,327.5,306,312.52,319.78Z" fill="#fff" stroke="#ffead2" stroke-miterlimit="10"/><path d="M263.27,283.62c-4.94,8.86-6.21,20.75-6.21,20.75-3.77-6.16-3.22-13.5-2.32-18A49,49,0,0,1,263.27,283.62Z" fill="#ffead2"/><path d="M286.66,282.71c-10.5,9.17-11.64,23.83-11.64,23.83a31.15,31.15,0,0,1,3.82-24.4c1.69,0,3.46.13,5.3.3Q285.4,282.54,286.66,282.71Z" fill="#ffead2"/><path d="M306.68,289.26c-14.59,2.3-14.68,16.9-14.68,17.27-2.61-12.88,3.5-18.43,7.48-20.62A54,54,0,0,1,306.68,289.26Z" fill="#ffead2"/><path d="M265.08,319.78H201.52S192.7,307,206.11,298.3a28.31,28.31,0,0,1,7.28-3.59,50.35,50.35,0,0,1,7.64-2A67.3,67.3,0,0,1,235,291.55c1.52,0,3.1.09,4.74.22.76.05,1.51.12,2.26.2a60.24,60.24,0,0,1,11.47,2.4,51.19,51.19,0,0,1,6.44,2.52l1,.46C269.76,301.79,278.48,309.46,265.08,319.78Z" fill="#fff" stroke="#ffead2" stroke-miterlimit="10"/><path d="M221,292.66c-4.42,6.64-5.56,15.56-5.56,15.56-3.37-4.62-2.88-10.12-2.08-13.51A50.35,50.35,0,0,1,221,292.66Z" fill="#ffead2"/><path d="M242,292c-9.39,6.88-10.41,17.88-10.41,17.88-2.69-8.37,1.12-15.19,3.41-18.3,1.52,0,3.1.09,4.74.22C240.45,291.82,241.2,291.89,242,292Z" fill="#ffead2"/><path d="M259.86,296.89c-13.06,1.72-13.14,12.67-13.14,12.95-2.32-9.66,3.14-13.83,6.7-15.47A51.19,51.19,0,0,1,259.86,296.89Z" fill="#ffead2"/><rect x="398.8" y="323.1" width="193.11" height="3.32" fill="#ACB1D6" stroke="#ffead2" stroke-miterlimit="10"/><path d="M431.12,323.1s-9.7-13.36,1.55-19c0,0,2.74-1.44,5.84-3.53a23.89,23.89,0,0,0,8.16-9.83c2-4.31,8-10.06,25.57-2.74,0,0,11.64,4.5,16.3,15.81,0,0,1.4,4,6.81,6.33a5.75,5.75,0,0,1,5.51,5,5,5,0,0,0,4,4c2.32.43,4.88,1.49,5.19,4Z" fill="#fff" stroke="#ffead2" stroke-miterlimit="10"/><path d="M434.36,323.1s-1.26-9.48,12.21-11.4c.29-.05.58-.08.88-.11a13,13,0,0,0,10.44-7.8s3.82-7.89,10.54-5.18" fill="none" stroke="#ffead2" stroke-linecap="round" stroke-linejoin="round"/><rect x="450.8" y="94.79" width="46.72" height="70.64" rx="21.84" transform="matrix(0.96, -0.29, 0.29, 0.96, -17.41, 140.85)" fill="#fff" stroke="#ffead2" stroke-miterlimit="10"/><path d="M445.85,123.54s-1.41-2.69-.78-12.17l.62-14.09a13.42,13.42,0,0,1,3.22-8.17c4.95-5.76,16.66-14.36,40.43-9.21,0,0,25.62,5.38,30,28.3,0,0,5.87,20.27-13.51,21.21L493.62,113.6S459.75,93.19,445.85,123.54Z" fill="#ACB1D6" stroke="#ffead2" stroke-miterlimit="10"/><path d="M445.79,102.83s11.89-7.11,25.85-8.31c18.55-1.6,35.11,12.18,36.44,30.75,0,.6.07,1.21.08,1.82" fill="none" stroke="#ffead2" stroke-linecap="round" stroke-linejoin="round"/><path d="M449.79,130.11s2.39-4.45,9.81-2.05" fill="none" stroke="#ffead2" stroke-linecap="round" stroke-linejoin="round"/><path d="M471.61,124.64a15.41,15.41,0,0,1,13.14-2.9" fill="none" stroke="#ffead2" stroke-linecap="round" stroke-linejoin="round"/><ellipse cx="479.67" cy="128.11" rx="1.49" ry="2.01" transform="translate(-16.77 121.65) rotate(-14.21)" fill="#ffead2"/><ellipse cx="457.69" cy="132.69" rx="1.49" ry="2.01" transform="translate(-5.57 21) rotate(-2.61)" fill="#ffead2"/><path d="M465.74,132.06v10.87a1.64,1.64,0,0,0,1.91,1.61l4-.66" fill="none" stroke="#ffead2" stroke-linecap="round" stroke-linejoin="round"/><path d="M450.14,131.29a9.7,9.7,0,0,1-2.49-2.68,11.94,11.94,0,0,1,3-16c4-3,11.17-6.23,23.49-6.47,0,0,28.95,2.09,31.71,23.26,0,0,1.36,11.5-5,13.73,0,0,.66-2.94-.92-8.24l-3.7-12.41s-3.76-15.23-24.95-14C471.32,108.52,442.23,108.2,450.14,131.29Z" fill="#ffead2"/><ellipse cx="500.71" cy="127.09" rx="5.38" ry="8.16" fill="#fff" stroke="#ffead2" stroke-miterlimit="10"/><path d="M526.33,200.68l-5.41-20c-2.81-10.4-8-23.87-8-23.87C529,158.88,548.41,167,548.41,167c12.58,3.9,16,30,16,30l3.9,48.39A38,38,0,0,1,564,264.3a6.48,6.48,0,0,0-.74,3.05c0,6.83-5.81,12-8.17,13.85a2,2,0,0,0-.75,1.83,4.7,4.7,0,0,1-2.7,4.72,19.68,19.68,0,0,0-3.55,6.21c-1.86,5.31-11.63,5.74-15.28,5.71a1,1,0,0,1-.9-1.31l2-5.33a.74.74,0,0,1,.7-.49h1.16a1.06,1.06,0,0,0,1.06-1c.8-14.8-19-19.21-19-19.21l8.94-8.06a5.62,5.62,0,0,0,1.87-3.61,8.34,8.34,0,0,1,3.37-6.05l-.35-8.69c-.74-4.84.59-7.87,1.8-9.53a8.58,8.58,0,0,0,1.59-5V220.5a5,5,0,0,0-.79-2.7C532.33,215,527.81,207.47,526.33,200.68Z" fill="#ACB1D6" stroke="#ffead2" stroke-miterlimit="10"/><path d="M518.41,163.75s16.19,4.54,26.65,5.14" fill="none" stroke="#ffead2" stroke-linecap="round" stroke-linejoin="round"/><path d="M534.93,219.45c-.82-38.7,7.63-43.79,7.63-43.79" fill="none" stroke="#ffead2" stroke-linecap="round" stroke-linejoin="round"/><path d="M534.93,219.45a35.56,35.56,0,0,1,12.27-24.3" fill="none" stroke="#ffead2" stroke-linecap="round" stroke-linejoin="round"/><path d="M529.42,257.57s5-6.78,17.81-3.42" fill="#ACB1D6" stroke="#ffead2" stroke-miterlimit="10"/><path d="M547.23,268.16s6.2,7.56,6.85,13.75" fill="#ACB1D6" stroke="#ffead2" stroke-miterlimit="10"/><path d="M559.27,257.57a20.07,20.07,0,0,1,3.85,11.37" fill="#ACB1D6" stroke="#ffead2" stroke-miterlimit="10"/><path d="M517.74,272.33l-22.39,7.45S483,280,470.8,293.23c0,0-16.39,9.79-8.81,13.95,0,0,2.85,4.16,6.44,2.94,0,0,1.49,4.4,8.78,3.18,0,0,6.07,3.91,13.9-1.72a59.49,59.49,0,0,0,12.61-12.77,6.25,6.25,0,0,1,3.17-2.34l29.43-9.58S534.83,277.12,517.74,272.33Z" fill="#fff" stroke="#ffead2" stroke-miterlimit="10"/><polyline points="461.99 307.18 472.03 301.31 480.35 294.46" fill="none" stroke="#ffead2" stroke-linecap="round" stroke-linejoin="round"/><path d="M468.43,310.12l3.73-.68A17.38,17.38,0,0,0,481,305l5.25-4.9" fill="none" stroke="#ffead2" stroke-linecap="round" stroke-linejoin="round"/><path d="M477.21,313.3s5.71.89,14.39-9.22" fill="none" stroke="#ffead2" stroke-linecap="round" stroke-linejoin="round"/><line x1="504.81" y1="297.15" x2="509.22" y2="291.53" fill="none" stroke="#ffead2" stroke-linecap="round" stroke-linejoin="round"/><path d="M440.55,278.66l-1.37,1.78a8.72,8.72,0,0,0-1.79,5.61l.06,1.35" fill="none" stroke="#ffead2" stroke-linecap="round" stroke-linejoin="round"/><rect x="180.86" y="368.4" width="14.47" height="289" transform="translate(49.08 -15.42) rotate(5.4)" fill="#ACB1D6" stroke="#ffead2" stroke-miterlimit="10"/><rect x="302.56" y="368.4" width="14.47" height="289" fill="#ACB1D6" stroke="#ffead2" stroke-miterlimit="10"/><rect x="569.62" y="368.4" width="14.47" height="289" transform="translate(50.81 -51.99) rotate(5.4)" fill="#ACB1D6" stroke="#ffead2" stroke-miterlimit="10"/><rect x="691.32" y="368.4" width="14.47" height="289" fill="#ACB1D6" stroke="#ffead2" stroke-miterlimit="10"/><rect x="192.65" y="347.22" width="515.62" height="27.09" fill="#ACB1D6" stroke="#ffead2" stroke-miterlimit="10"/><rect x="178.71" y="326.94" width="543.31" height="30.37" fill="#fff" stroke="#ffead2" stroke-miterlimit="10"/><path d="M212.64,327.05c1.42,6.48-1.14,8.3-6.79,4.82h0c-5.64-3.48-8.21-1.66-6.78,4.82h0c1.42,6.48-1.14,8.3-6.79,4.82h0c-5.65-3.47-8.21-1.65-6.79,4.82h0c1.42,6.47-1.14,8.29-6.79,4.82" fill="none" stroke="#ffead2" stroke-linecap="round" stroke-linejoin="round"/><path d="M263,327.05c.35,7.23-3.5,10-10.22,7.25h0c-6.71-2.72-10.56,0-10.21,7.26h0c.36,7.23-3.49,10-10.21,7.25h0c-6.71-2.72-10.57,0-10.21,7.26h0c0,.43,0,.84,0,1.24" fill="none" stroke="#ffead2" stroke-linecap="round" stroke-linejoin="round"/><path d="M318.65,327.05c.36,7.23-3.49,10-10.21,7.25h0c-6.71-2.72-10.57,0-10.21,7.26h0c.36,7.23-3.5,10-10.21,7.25h0c-6.72-2.72-10.57,0-10.21,7.26h0c0,.43,0,.84,0,1.24" fill="none" stroke="#ffead2" stroke-linecap="round" stroke-linejoin="round"/><path d="M377.79,327.05c.36,7.23-3.5,10-10.21,7.25h0c-6.72-2.72-10.57,0-10.21,7.26h0c.35,7.23-3.5,10-10.22,7.25h0c-6.71-2.72-10.56,0-10.21,7.26h0c0,.43,0,.84,0,1.24" fill="none" stroke="#ffead2" stroke-linecap="round" stroke-linejoin="round"/><path d="M424.3,327c.36,7.24-3.49,10-10.21,7.26h0c-6.71-2.72-10.57,0-10.21,7.25h0c.36,7.24-3.5,10-10.21,7.26h0c-6.72-2.72-10.57,0-10.21,7.25h0c0,.42,0,.83,0,1.23" fill="none" stroke="#ffead2" stroke-linecap="round" stroke-linejoin="round"/><path d="M481.6,327c.35,7.24-3.5,10-10.22,7.26h0c-6.71-2.72-10.56,0-10.21,7.25h0c.36,7.24-3.49,10-10.21,7.26h0c-6.71-2.72-10.57,0-10.21,7.25h0c0,.42,0,.83,0,1.23" fill="none" stroke="#ffead2" stroke-linecap="round" stroke-linejoin="round"/><path d="M534.1,327.05c.36,7.23-3.49,10-10.21,7.25h0c-6.71-2.72-10.57,0-10.21,7.26h0c.36,7.23-3.5,10-10.21,7.25h0c-6.72-2.72-10.57,0-10.21,7.26h0c0,.43,0,.84,0,1.24" fill="none" stroke="#ffead2" stroke-linecap="round" stroke-linejoin="round"/><path d="M582.3,327.05c.36,7.23-3.49,10-10.21,7.25h0c-6.71-2.72-10.57,0-10.21,7.26h0c.36,7.23-3.5,10-10.21,7.25h0c-6.72-2.72-10.57,0-10.21,7.26h0c0,.43,0,.84,0,1.24" fill="none" stroke="#ffead2" stroke-linecap="round" stroke-linejoin="round"/><path d="M628.12,327.05c.36,7.23-3.49,10-10.21,7.25h0c-6.71-2.72-10.57,0-10.21,7.26h0c.36,7.23-3.5,10-10.21,7.25h0c-6.72-2.72-10.57,0-10.21,7.26h0c0,.43,0,.84,0,1.24" fill="none" stroke="#ffead2" stroke-linecap="round" stroke-linejoin="round"/><path d="M679.66,327.05c.36,7.23-3.49,10-10.21,7.25h0c-6.71-2.72-10.57,0-10.21,7.26h0c.36,7.23-3.49,10-10.21,7.25h0c-6.72-2.72-10.57,0-10.21,7.26h0c0,.43,0,.84,0,1.24" fill="none" stroke="#ffead2" stroke-linecap="round" stroke-linejoin="round"/><path d="M722,327.05c.36,7.23-3.5,10-10.21,7.25h0c-6.72-2.72-10.57,0-10.21,7.26h0c.35,7.23-3.5,10-10.21,7.25h0c-6.71-2.72-10.56,0-10.21,7.26h0c0,.43,0,.84,0,1.24" fill="none" stroke="#ffead2" stroke-linecap="round" stroke-linejoin="round"/><path d="M467.63,150.41c2.22.25,6.31.17,11.81-2.29a.71.71,0,0,1,.88,1c-2.29,3.36-7.44,8.93-13.31,2.43A.72.72,0,0,1,467.63,150.41Z" fill="#fff" stroke="#ffead2" stroke-miterlimit="10"/><path d="M376.58,582c6.54-13.4,18-20.35,30.91-16.49s14.9,21.8,5.28,26.35-19.27-8.72-24.36-11.45S376.58,582,376.58,582Z" fill="#ACB1D6" stroke="#ffead2" stroke-miterlimit="10"/><path d="M371.16,582.35s-9.27-11.65-27.14-7.51c-17,3.91-24.84,35.08-7.66,38.8s14.14-25.1,20.4-30C361.35,580.05,368,580.82,371.16,582.35Z" fill="#ACB1D6" stroke="#ffead2" stroke-miterlimit="10"/><path d="M362.35,566.79s-1.73-20.91-17.26-27.69c-13-5.65-20.41,8.94-11.23,17.87C341.28,564.19,353.19,560.93,362.35,566.79Z" fill="#ACB1D6" stroke="#ffead2" stroke-miterlimit="10"/><path d="M374.45,563c.09.9,2.35-7.59,15.45-15.14,12-6.85,26.19-24.67,14.49-35.92C395,502.91,370.08,522.69,374.45,563Z" fill="#ACB1D6" stroke="#ffead2" stroke-miterlimit="10"/><path d="M377.08,614l-1-.08c1.59-18.29-1.18-29.67-8.24-33.83-9.26-5.46-23,3.66-23.11,3.75l-.56-.83c.58-.39,14.37-9.55,24.17-3.78C375.76,583.61,378.7,595.31,377.08,614Z" fill="#ffead2"/><path d="M370.2,614.06c-.18-.93-4.35-23,7.49-33.78,7-6.33,18-7.3,32.79-2.91l-.28,1c-14.44-4.29-25.15-3.39-31.83,2.68-11.43,10.38-7.23,32.64-7.19,32.86Z" fill="#ffead2"/><path d="M373.48,614.17c-.17-.39-16.56-39.7,22.52-95l.82.57c-38.74,54.86-22.59,93.68-22.42,94.07Z" fill="#ffead2"/><path d="M375.48,610.49l-1,0c2-48.07-36-62.56-36.36-62.7l.34-.94C338.85,547,377.5,561.69,375.48,610.49Z" fill="#ffead2"/><polygon points="351.5 614.93 352.44 626.04 355.31 659.96 386.07 659.96 388.94 626.04 389.88 614.93 351.5 614.93" fill="#fff" stroke="#ffead2" stroke-miterlimit="10"/><polygon points="351.5 614.93 352.44 626.04 388.94 626.04 389.88 614.93 351.5 614.93" fill="#ffead2"/><rect x="348.48" y="610.47" width="44.42" height="10.66" fill="#fff" stroke="#ffead2" stroke-miterlimit="10"/></svg>